{
    "asset" : {
        "generator" : "Khronos glTF Blender I/O v1.1.46",
        "version" : "2.0"
    },
    "scene" : 0,
    "scenes" : [
        {
            "name" : "Scene",
            "nodes" : [
                0,
                1,
                2
            ]
        }
    ],
    "nodes" : [
        {
            "mesh" : 0,
            "name" : "Pin42",
            "rotation" : [
                0.5580019950866699,
                0.576673150062561,
                0.4483823776245117,
                0.39374494552612305
            ],
            "scale" : [
                3.554771661758423,
                3.2425014972686768,
                0.5296347141265869
            ],
            "translation" : [
                11.947089195251465,
                5.797436714172363,
                -18.244754791259766
            ]
        },
        {
            "mesh" : 1,
            "name" : "Gorro",
            "rotation" : [
                0.7071068286895752,
                0,
                0,
                0.7071067094802856
            ],
            "translation" : [
                0,
                17.98333168029785,
                2.41621955865412e-06
            ]
        },
        {
            "mesh" : 2,
            "name" : "Cube",
            "rotation" : [
                0.019815556704998016,
                0.1430361270904541,
                0.03185513988137245,
                0.9890062212944031
            ],
            "scale" : [
                0.15406882762908936,
                2.3243629932403564,
                7.207512378692627
            ],
            "translation" : [
                11.845460891723633,
                5.711051940917969,
                -18.020084381103516
            ]
        }
    ],
    "materials" : [
        {
            "doubleSided" : true,
            "emissiveFactor" : [
                1,
                1,
                1
            ],
            "name" : "LuzBlanco.001",
            "pbrMetallicRoughness" : {
                "baseColorFactor" : [
                    0.0041635544039309025,
                    0.11898259818553925,
                    1,
                    1
                ],
                "metallicFactor" : 0.5597484111785889,
                "roughnessFactor" : 1
            }
        },
        {
            "doubleSided" : true,
            "emissiveFactor" : [
                1,
                1,
                1
            ],
            "emissiveTexture" : {
                "index" : 0,
                "texCoord" : 0
            },
            "name" : "AvatarWearable_MAT.001",
            "pbrMetallicRoughness" : {
                "baseColorFactor" : [
                    1,
                    1,
                    1,
                    1
                ],
                "metallicFactor" : 1,
                "roughnessFactor" : 1
            }
        },
        {
            "doubleSided" : true,
            "emissiveFactor" : [
                0,
                0,
                0
            ],
            "name" : "Material.001",
            "pbrMetallicRoughness" : {
                "baseColorTexture" : {
                    "index" : 1,
                    "texCoord" : 0
                },
                "metallicFactor" : 0,
                "roughnessFactor" : 1
            }
        },
        {
            "doubleSided" : true,
            "emissiveFactor" : [
                0,
                0,
                0
            ],
            "name" : "Material.003",
            "pbrMetallicRoughness" : {
                "baseColorTexture" : {
                    "index" : 2,
                    "texCoord" : 0
                },
                "metallicFactor" : 1,
                "roughnessFactor" : 0
            }
        }
    ],
    "meshes" : [
        {
            "name" : "Cube.001",
            "primitives" : [
                {
                    "attributes" : {
                        "POSITION" : 0,
                        "NORMAL" : 1,
                        "TEXCOORD_0" : 2,
                        "TEXCOORD_1" : 3
                    },
                    "indices" : 4,
                    "material" : 0
                },
                {
                    "attributes" : {
                        "POSITION" : 5,
                        "NORMAL" : 6,
                        "TEXCOORD_0" : 7,
                        "TEXCOORD_1" : 8
                    },
                    "indices" : 9,
                    "material" : 1
                }
            ]
        },
        {
            "name" : "Gorro",
            "primitives" : [
                {
                    "attributes" : {
                        "POSITION" : 10,
                        "NORMAL" : 11,
                        "TEXCOORD_0" : 12
                    },
                    "indices" : 13,
                    "material" : 2
                }
            ]
        },
        {
            "name" : "Cube.002",
            "primitives" : [
                {
                    "attributes" : {
                        "POSITION" : 14,
                        "NORMAL" : 15,
                        "TEXCOORD_0" : 16
                    },
                    "indices" : 17,
                    "material" : 3
                }
            ]
        }
    ],
    "textures" : [
        {
            "source" : 0
        },
        {
            "source" : 1
        },
        {
            "source" : 2
        }
    ],
    "images" : [
        {
            "bufferView" : 10,
            "mimeType" : "image/png",
            "name" : "Image_0"
        },
        {
            "bufferView" : 15,
            "mimeType" : "image/png",
            "name" : "Image_1"
        },
        {
            "bufferView" : 20,
            "mimeType" : "image/jpeg",
            "name" : "Metal030_PREVIEW"
        }
    ],
    "accessors" : [
        {
            "bufferView" : 0,
            "componentType" : 5126,
            "count" : 12856,
            "max" : [
                0.0332261323928833,
                0.5586767792701721,
                0.31885021924972534
            ],
            "min" : [
                -0.5249385833740234,
                -2.1080706119537354,
                0.1467597931623459
            ],
            "type" : "VEC3"
        },
        {
            "bufferView" : 1,
            "componentType" : 5126,
            "count" : 12856,
            "type" : "VEC3"
        },
        {
            "bufferView" : 2,
            "componentType" : 5126,
            "count" : 12856,
            "type" : "VEC2"
        },
        {
            "bufferView" : 3,
            "componentType" : 5126,
            "count" : 12856,
            "type" : "VEC2"
        },
        {
            "bufferView" : 4,
            "componentType" : 5123,
            "count" : 19248,
            "type" : "SCALAR"
        },
        {
            "bufferView" : 5,
            "componentType" : 5126,
            "count" : 228,
            "max" : [
                0.49274006485939026,
                2.1370277404785156,
                0.5583484172821045
            ],
            "min" : [
                -0.396945983171463,
                0.6702603101730347,
                0.09946586191654205
            ],
            "type" : "VEC3"
        },
        {
            "bufferView" : 6,
            "componentType" : 5126,
            "count" : 228,
            "type" : "VEC3"
        },
        {
            "bufferView" : 7,
            "componentType" : 5126,
            "count" : 228,
            "type" : "VEC2"
        },
        {
            "bufferView" : 8,
            "componentType" : 5126,
            "count" : 228,
            "type" : "VEC2"
        },
        {
            "bufferView" : 9,
            "componentType" : 5123,
            "count" : 228,
            "type" : "SCALAR"
        },
        {
            "bufferView" : 11,
            "componentType" : 5126,
            "count" : 1078,
            "max" : [
                14.453569412231445,
                34.31703186035156,
                17
            ],
            "min" : [
                -14.453569412231445,
                -34.31703186035156,
                -41.88256072998047
            ],
            "type" : "VEC3"
        },
        {
            "bufferView" : 12,
            "componentType" : 5126,
            "count" : 1078,
            "type" : "VEC3"
        },
        {
            "bufferView" : 13,
            "componentType" : 5126,
            "count" : 1078,
            "type" : "VEC2"
        },
        {
            "bufferView" : 14,
            "componentType" : 5123,
            "count" : 5508,
            "type" : "SCALAR"
        },
        {
            "bufferView" : 16,
            "componentType" : 5126,
            "count" : 48,
            "max" : [
                1,
                1,
                1
            ],
            "min" : [
                -1,
                -1,
                -1
            ],
            "type" : "VEC3"
        },
        {
            "bufferView" : 17,
            "componentType" : 5126,
            "count" : 48,
            "type" : "VEC3"
        },
        {
            "bufferView" : 18,
            "componentType" : 5126,
            "count" : 48,
            "type" : "VEC2"
        },
        {
            "bufferView" : 19,
            "componentType" : 5123,
            "count" : 84,
            "type" : "SCALAR"
        }
    ],
    "bufferViews" : [
        {
            "buffer" : 0,
            "byteLength" : 154272,
            "byteOffset" : 0
        },
        {
            "buffer" : 0,
            "byteLength" : 154272,
            "byteOffset" : 154272
        },
        {
            "buffer" : 0,
            "byteLength" : 102848,
            "byteOffset" : 308544
        },
        {
            "buffer" : 0,
            "byteLength" : 102848,
            "byteOffset" : 411392
        },
        {
            "buffer" : 0,
            "byteLength" : 38496,
            "byteOffset" : 514240
        },
        {
            "buffer" : 0,
            "byteLength" : 2736,
            "byteOffset" : 552736
        },
        {
            "buffer" : 0,
            "byteLength" : 2736,
            "byteOffset" : 555472
        },
        {
            "buffer" : 0,
            "byteLength" : 1824,
            "byteOffset" : 558208
        },
        {
            "buffer" : 0,
            "byteLength" : 1824,
            "byteOffset" : 560032
        },
        {
            "buffer" : 0,
            "byteLength" : 456,
            "byteOffset" : 561856
        },
        {
            "buffer" : 0,
            "byteLength" : 181129,
            "byteOffset" : 562312
        },
        {
            "buffer" : 0,
            "byteLength" : 12936,
            "byteOffset" : 743444
        },
        {
            "buffer" : 0,
            "byteLength" : 12936,
            "byteOffset" : 756380
        },
        {
            "buffer" : 0,
            "byteLength" : 8624,
            "byteOffset" : 769316
        },
        {
            "buffer" : 0,
            "byteLength" : 11016,
            "byteOffset" : 777940
        },
        {
            "buffer" : 0,
            "byteLength" : 1251755,
            "byteOffset" : 788956
        },
        {
            "buffer" : 0,
            "byteLength" : 576,
            "byteOffset" : 2040712
        },
        {
            "buffer" : 0,
            "byteLength" : 576,
            "byteOffset" : 2041288
        },
        {
            "buffer" : 0,
            "byteLength" : 384,
            "byteOffset" : 2041864
        },
        {
            "buffer" : 0,
            "byteLength" : 168,
            "byteOffset" : 2042248
        },
        {
            "buffer" : 0,
            "byteLength" : 113765,
            "byteOffset" : 2042416
        }
    ],
    "buffers" : [
        {
            "byteLength" : 2156184,
            "uri" : "data:application/octet-stream;base64,"
        }
    ]
}
