{
    "asset" : {
        "generator" : "Khronos glTF Blender I/O v1.5.17",
        "version" : "2.0"
    },
    "scene" : 0,
    "scenes" : [
        {
            "name" : "Scene",
            "nodes" : [
                0,
                1,
                2,
                3,
                4,
                5
            ]
        }
    ],
    "nodes" : [
        {
            "mesh" : 0,
            "name" : "Pin42",
            "rotation" : [
                0.11614721268415451,
                0.09071531146764755,
                0.7248237133026123,
                0.6729867458343506
            ],
            "scale" : [
                3.5547709465026855,
                0.5296347141265869,
                3.2425010204315186
            ],
            "translation" : [
                11.947089195251465,
                5.797433853149414,
                -18.244752883911133
            ]
        },
        {
            "mesh" : 1,
            "name" : "Gorro",
            "translation" : [
                0,
                17.98332977294922,
                0
            ]
        },
        {
            "name" : "Point",
            "translation" : [
                67.97863006591797,
                51.37377166748047,
                -2.6951043605804443
            ]
        },
        {
            "name" : "Point.001",
            "translation" : [
                -37.600914001464844,
                51.37377166748047,
                -6.965261459350586
            ]
        },
        {
            "name" : "Light",
            "rotation" : [
                0.16907575726509094,
                0.7558803558349609,
                -0.27217137813568115,
                0.570947527885437
            ],
            "translation" : [
                4.076245307922363,
                5.903861999511719,
                -1.0054539442062378
            ]
        },
        {
            "name" : "Camera",
            "rotation" : [
                0.483536034822464,
                0.33687159419059753,
                -0.20870360732078552,
                0.7804827094078064
            ],
            "translation" : [
                7.358891487121582,
                4.958309173583984,
                6.925790786743164
            ]
        }
    ],
    "materials" : [
        {
            "doubleSided" : true,
            "emissiveFactor" : [
                1,
                1,
                1
            ],
            "name" : "LuzBlanco.001",
            "pbrMetallicRoughness" : {
                "baseColorFactor" : [
                    0.02250031754374504,
                    0.02250031754374504,
                    0.02250031754374504,
                    1
                ]
            }
        },
        {
            "doubleSided" : true,
            "emissiveFactor" : [
                1,
                1,
                1
            ],
            "emissiveTexture" : {
                "index" : 0
            },
            "name" : "AvatarWearable_MAT.001",
            "pbrMetallicRoughness" : {}
        },
        {
            "doubleSided" : true,
            "name" : "Material.001",
            "pbrMetallicRoughness" : {
                "baseColorTexture" : {
                    "index" : 1
                },
                "metallicFactor" : 0,
                "roughnessFactor" : 0.5
            }
        }
    ],
    "meshes" : [
        {
            "name" : "Cube.001",
            "primitives" : [
                {
                    "attributes" : {
                        "POSITION" : 0,
                        "NORMAL" : 1,
                        "TEXCOORD_0" : 2,
                        "TEXCOORD_1" : 3
                    },
                    "indices" : 4,
                    "material" : 0
                },
                {
                    "attributes" : {
                        "POSITION" : 5,
                        "NORMAL" : 6,
                        "TEXCOORD_0" : 7,
                        "TEXCOORD_1" : 8
                    },
                    "indices" : 9,
                    "material" : 1
                }
            ]
        },
        {
            "name" : "Gorro",
            "primitives" : [
                {
                    "attributes" : {
                        "POSITION" : 10,
                        "NORMAL" : 11,
                        "TEXCOORD_0" : 12
                    },
                    "indices" : 13,
                    "material" : 2
                }
            ]
        }
    ],
    "textures" : [
        {
            "sampler" : 0,
            "source" : 0
        },
        {
            "sampler" : 0,
            "source" : 1
        }
    ],
    "images" : [
        {
            "bufferView" : 10,
            "mimeType" : "image/jpeg",
            "name" : "PaletaColores-2"
        },
        {
            "bufferView" : 15,
            "mimeType" : "image/png",
            "name" : "gorroChemaTransparent"
        }
    ],
    "accessors" : [
        {
            "bufferView" : 0,
            "componentType" : 5126,
            "count" : 12834,
            "max" : [
                0.0332261323928833,
                -0.1467597931623459,
                0.5586767792701721
            ],
            "min" : [
                -0.5249385833740234,
                -0.31885021924972534,
                -2.1080706119537354
            ],
            "type" : "VEC3"
        },
        {
            "bufferView" : 1,
            "componentType" : 5126,
            "count" : 12834,
            "type" : "VEC3"
        },
        {
            "bufferView" : 2,
            "componentType" : 5126,
            "count" : 12834,
            "type" : "VEC2"
        },
        {
            "bufferView" : 3,
            "componentType" : 5126,
            "count" : 12834,
            "type" : "VEC2"
        },
        {
            "bufferView" : 4,
            "componentType" : 5123,
            "count" : 19248,
            "type" : "SCALAR"
        },
        {
            "bufferView" : 5,
            "componentType" : 5126,
            "count" : 202,
            "max" : [
                0.49274006485939026,
                -0.09946586191654205,
                2.1370277404785156
            ],
            "min" : [
                -0.396945983171463,
                -0.5583484172821045,
                0.6702603101730347
            ],
            "type" : "VEC3"
        },
        {
            "bufferView" : 6,
            "componentType" : 5126,
            "count" : 202,
            "type" : "VEC3"
        },
        {
            "bufferView" : 7,
            "componentType" : 5126,
            "count" : 202,
            "type" : "VEC2"
        },
        {
            "bufferView" : 8,
            "componentType" : 5126,
            "count" : 202,
            "type" : "VEC2"
        },
        {
            "bufferView" : 9,
            "componentType" : 5123,
            "count" : 228,
            "type" : "SCALAR"
        },
        {
            "bufferView" : 11,
            "componentType" : 5126,
            "count" : 1006,
            "max" : [
                14.453569412231445,
                41.88256072998047,
                34.31703186035156
            ],
            "min" : [
                -14.453569412231445,
                -17,
                -34.31703186035156
            ],
            "type" : "VEC3"
        },
        {
            "bufferView" : 12,
            "componentType" : 5126,
            "count" : 1006,
            "type" : "VEC3"
        },
        {
            "bufferView" : 13,
            "componentType" : 5126,
            "count" : 1006,
            "type" : "VEC2"
        },
        {
            "bufferView" : 14,
            "componentType" : 5123,
            "count" : 5508,
            "type" : "SCALAR"
        }
    ],
    "bufferViews" : [
        {
            "buffer" : 0,
            "byteLength" : 154008,
            "byteOffset" : 0
        },
        {
            "buffer" : 0,
            "byteLength" : 154008,
            "byteOffset" : 154008
        },
        {
            "buffer" : 0,
            "byteLength" : 102672,
            "byteOffset" : 308016
        },
        {
            "buffer" : 0,
            "byteLength" : 102672,
            "byteOffset" : 410688
        },
        {
            "buffer" : 0,
            "byteLength" : 38496,
            "byteOffset" : 513360
        },
        {
            "buffer" : 0,
            "byteLength" : 2424,
            "byteOffset" : 551856
        },
        {
            "buffer" : 0,
            "byteLength" : 2424,
            "byteOffset" : 554280
        },
        {
            "buffer" : 0,
            "byteLength" : 1616,
            "byteOffset" : 556704
        },
        {
            "buffer" : 0,
            "byteLength" : 1616,
            "byteOffset" : 558320
        },
        {
            "buffer" : 0,
            "byteLength" : 456,
            "byteOffset" : 559936
        },
        {
            "buffer" : 0,
            "byteLength" : 105155,
            "byteOffset" : 560392
        },
        {
            "buffer" : 0,
            "byteLength" : 12072,
            "byteOffset" : 665548
        },
        {
            "buffer" : 0,
            "byteLength" : 12072,
            "byteOffset" : 677620
        },
        {
            "buffer" : 0,
            "byteLength" : 8048,
            "byteOffset" : 689692
        },
        {
            "buffer" : 0,
            "byteLength" : 11016,
            "byteOffset" : 697740
        },
        {
            "buffer" : 0,
            "byteLength" : 1448774,
            "byteOffset" : 708756
        }
    ],
    "samplers" : [
        {
            "magFilter" : 9729,
            "minFilter" : 9987
        }
    ],
    "buffers" : [
        {
            "byteLength" : 2157532,
            "uri" : "data:application/octet-stream;base64,"
        }
    ]
}
